<mxfile host="Electron" modified="2024-01-11T04:24:31.786Z" agent="Mozilla/5.0 (Windows NT 10.0; Win64; x64) AppleWebKit/537.36 (KHTML, like Gecko) draw.io/22.1.2 Chrome/114.0.5735.289 Electron/25.9.4 Safari/537.36" etag="jFQclh09Xgj_VriOoMYt" version="22.1.2" type="device">
  <diagram name="第 1 页" id="9CEwVW7agXE3A64oqKLv">
    <mxGraphModel dx="1562" dy="909" grid="1" gridSize="10" guides="1" tooltips="1" connect="1" arrows="1" fold="1" page="1" pageScale="1" pageWidth="1169" pageHeight="827" math="0" shadow="0">
      <root>
        <mxCell id="0" />
        <mxCell id="1" parent="0" />
        <mxCell id="_gjPE1Kif44rUplyWyRz-95" value="" style="group" vertex="1" connectable="0" parent="1">
          <mxGeometry x="280" y="30" width="200" height="40" as="geometry" />
        </mxCell>
        <mxCell id="_gjPE1Kif44rUplyWyRz-37" value="" style="rounded=0;whiteSpace=wrap;html=1;labelBorderColor=none;pointerEvents=1;align=center;verticalAlign=middle;fontFamily=Helvetica;fontSize=16;" vertex="1" parent="_gjPE1Kif44rUplyWyRz-95">
          <mxGeometry width="40" height="40" as="geometry" />
        </mxCell>
        <mxCell id="_gjPE1Kif44rUplyWyRz-90" value="" style="rounded=0;whiteSpace=wrap;html=1;labelBorderColor=none;pointerEvents=1;align=center;verticalAlign=middle;fontFamily=Helvetica;fontSize=16;" vertex="1" parent="_gjPE1Kif44rUplyWyRz-95">
          <mxGeometry x="40" width="40" height="40" as="geometry" />
        </mxCell>
        <mxCell id="_gjPE1Kif44rUplyWyRz-92" value="" style="rounded=0;whiteSpace=wrap;html=1;labelBorderColor=none;pointerEvents=1;align=center;verticalAlign=middle;fontFamily=Helvetica;fontSize=16;" vertex="1" parent="_gjPE1Kif44rUplyWyRz-95">
          <mxGeometry x="80" width="40" height="40" as="geometry" />
        </mxCell>
        <mxCell id="_gjPE1Kif44rUplyWyRz-93" value="" style="rounded=0;whiteSpace=wrap;html=1;labelBorderColor=none;pointerEvents=1;align=center;verticalAlign=middle;fontFamily=Helvetica;fontSize=16;" vertex="1" parent="_gjPE1Kif44rUplyWyRz-95">
          <mxGeometry x="120" width="40" height="40" as="geometry" />
        </mxCell>
        <mxCell id="_gjPE1Kif44rUplyWyRz-94" value="" style="rounded=0;whiteSpace=wrap;html=1;labelBorderColor=none;pointerEvents=1;align=center;verticalAlign=middle;fontFamily=Helvetica;fontSize=16;" vertex="1" parent="_gjPE1Kif44rUplyWyRz-95">
          <mxGeometry x="160" width="40" height="40" as="geometry" />
        </mxCell>
        <mxCell id="_gjPE1Kif44rUplyWyRz-97" value="" style="group" vertex="1" connectable="0" parent="1">
          <mxGeometry x="280" y="100" width="200" height="40" as="geometry" />
        </mxCell>
        <mxCell id="_gjPE1Kif44rUplyWyRz-98" value="A" style="rounded=0;whiteSpace=wrap;html=1;labelBorderColor=none;pointerEvents=1;align=center;verticalAlign=middle;fontFamily=Helvetica;fontSize=16;fillColor=#d5e8d4;strokeColor=#82b366;" vertex="1" parent="_gjPE1Kif44rUplyWyRz-97">
          <mxGeometry width="40" height="40" as="geometry" />
        </mxCell>
        <mxCell id="_gjPE1Kif44rUplyWyRz-99" value="" style="rounded=0;whiteSpace=wrap;html=1;labelBorderColor=none;pointerEvents=1;align=center;verticalAlign=middle;fontFamily=Helvetica;fontSize=16;" vertex="1" parent="_gjPE1Kif44rUplyWyRz-97">
          <mxGeometry x="40" width="40" height="40" as="geometry" />
        </mxCell>
        <mxCell id="_gjPE1Kif44rUplyWyRz-100" value="" style="rounded=0;whiteSpace=wrap;html=1;labelBorderColor=none;pointerEvents=1;align=center;verticalAlign=middle;fontFamily=Helvetica;fontSize=16;" vertex="1" parent="_gjPE1Kif44rUplyWyRz-97">
          <mxGeometry x="80" width="40" height="40" as="geometry" />
        </mxCell>
        <mxCell id="_gjPE1Kif44rUplyWyRz-101" value="" style="rounded=0;whiteSpace=wrap;html=1;labelBorderColor=none;pointerEvents=1;align=center;verticalAlign=middle;fontFamily=Helvetica;fontSize=16;" vertex="1" parent="_gjPE1Kif44rUplyWyRz-97">
          <mxGeometry x="120" width="40" height="40" as="geometry" />
        </mxCell>
        <mxCell id="_gjPE1Kif44rUplyWyRz-102" value="" style="rounded=0;whiteSpace=wrap;html=1;labelBorderColor=none;pointerEvents=1;align=center;verticalAlign=middle;fontFamily=Helvetica;fontSize=16;" vertex="1" parent="_gjPE1Kif44rUplyWyRz-97">
          <mxGeometry x="160" width="40" height="40" as="geometry" />
        </mxCell>
        <mxCell id="_gjPE1Kif44rUplyWyRz-103" value="" style="group" vertex="1" connectable="0" parent="1">
          <mxGeometry x="280" y="170" width="200" height="40" as="geometry" />
        </mxCell>
        <mxCell id="_gjPE1Kif44rUplyWyRz-104" value="A" style="rounded=0;whiteSpace=wrap;html=1;labelBorderColor=none;pointerEvents=1;align=center;verticalAlign=middle;fontFamily=Helvetica;fontSize=16;fillColor=#d5e8d4;strokeColor=#82b366;" vertex="1" parent="_gjPE1Kif44rUplyWyRz-103">
          <mxGeometry width="40" height="40" as="geometry" />
        </mxCell>
        <mxCell id="_gjPE1Kif44rUplyWyRz-105" value="B" style="rounded=0;whiteSpace=wrap;html=1;labelBorderColor=none;pointerEvents=1;align=center;verticalAlign=middle;fontFamily=Helvetica;fontSize=16;fillColor=#d5e8d4;strokeColor=#82b366;" vertex="1" parent="_gjPE1Kif44rUplyWyRz-103">
          <mxGeometry x="40" width="40" height="40" as="geometry" />
        </mxCell>
        <mxCell id="_gjPE1Kif44rUplyWyRz-106" value="" style="rounded=0;whiteSpace=wrap;html=1;labelBorderColor=none;pointerEvents=1;align=center;verticalAlign=middle;fontFamily=Helvetica;fontSize=16;" vertex="1" parent="_gjPE1Kif44rUplyWyRz-103">
          <mxGeometry x="80" width="40" height="40" as="geometry" />
        </mxCell>
        <mxCell id="_gjPE1Kif44rUplyWyRz-107" value="" style="rounded=0;whiteSpace=wrap;html=1;labelBorderColor=none;pointerEvents=1;align=center;verticalAlign=middle;fontFamily=Helvetica;fontSize=16;" vertex="1" parent="_gjPE1Kif44rUplyWyRz-103">
          <mxGeometry x="120" width="40" height="40" as="geometry" />
        </mxCell>
        <mxCell id="_gjPE1Kif44rUplyWyRz-108" value="" style="rounded=0;whiteSpace=wrap;html=1;labelBorderColor=none;pointerEvents=1;align=center;verticalAlign=middle;fontFamily=Helvetica;fontSize=16;" vertex="1" parent="_gjPE1Kif44rUplyWyRz-103">
          <mxGeometry x="160" width="40" height="40" as="geometry" />
        </mxCell>
        <mxCell id="_gjPE1Kif44rUplyWyRz-109" value="" style="group" vertex="1" connectable="0" parent="1">
          <mxGeometry x="280" y="240" width="200" height="40" as="geometry" />
        </mxCell>
        <mxCell id="_gjPE1Kif44rUplyWyRz-110" value="A" style="rounded=0;whiteSpace=wrap;html=1;labelBorderColor=none;pointerEvents=1;align=center;verticalAlign=middle;fontFamily=Helvetica;fontSize=16;fillColor=#d5e8d4;strokeColor=#82b366;" vertex="1" parent="_gjPE1Kif44rUplyWyRz-109">
          <mxGeometry width="40" height="40" as="geometry" />
        </mxCell>
        <mxCell id="_gjPE1Kif44rUplyWyRz-111" value="B" style="rounded=0;whiteSpace=wrap;html=1;labelBorderColor=none;pointerEvents=1;align=center;verticalAlign=middle;fontFamily=Helvetica;fontSize=16;fillColor=#d5e8d4;strokeColor=#82b366;" vertex="1" parent="_gjPE1Kif44rUplyWyRz-109">
          <mxGeometry x="40" width="40" height="40" as="geometry" />
        </mxCell>
        <mxCell id="_gjPE1Kif44rUplyWyRz-112" value="C" style="rounded=0;whiteSpace=wrap;html=1;labelBorderColor=none;pointerEvents=1;align=center;verticalAlign=middle;fontFamily=Helvetica;fontSize=16;fillColor=#d5e8d4;strokeColor=#82b366;" vertex="1" parent="_gjPE1Kif44rUplyWyRz-109">
          <mxGeometry x="80" width="40" height="40" as="geometry" />
        </mxCell>
        <mxCell id="_gjPE1Kif44rUplyWyRz-113" value="" style="rounded=0;whiteSpace=wrap;html=1;labelBorderColor=none;pointerEvents=1;align=center;verticalAlign=middle;fontFamily=Helvetica;fontSize=16;" vertex="1" parent="_gjPE1Kif44rUplyWyRz-109">
          <mxGeometry x="120" width="40" height="40" as="geometry" />
        </mxCell>
        <mxCell id="_gjPE1Kif44rUplyWyRz-114" value="" style="rounded=0;whiteSpace=wrap;html=1;labelBorderColor=none;pointerEvents=1;align=center;verticalAlign=middle;fontFamily=Helvetica;fontSize=16;" vertex="1" parent="_gjPE1Kif44rUplyWyRz-109">
          <mxGeometry x="160" width="40" height="40" as="geometry" />
        </mxCell>
        <mxCell id="_gjPE1Kif44rUplyWyRz-115" value="" style="group" vertex="1" connectable="0" parent="1">
          <mxGeometry x="280" y="310" width="200" height="40" as="geometry" />
        </mxCell>
        <mxCell id="_gjPE1Kif44rUplyWyRz-116" value="A" style="rounded=0;whiteSpace=wrap;html=1;labelBorderColor=none;pointerEvents=1;align=center;verticalAlign=middle;fontFamily=Helvetica;fontSize=16;fillColor=#d5e8d4;strokeColor=#82b366;" vertex="1" parent="_gjPE1Kif44rUplyWyRz-115">
          <mxGeometry width="40" height="40" as="geometry" />
        </mxCell>
        <mxCell id="_gjPE1Kif44rUplyWyRz-117" value="B" style="rounded=0;whiteSpace=wrap;html=1;labelBorderColor=none;pointerEvents=1;align=center;verticalAlign=middle;fontFamily=Helvetica;fontSize=16;fillColor=#d5e8d4;strokeColor=#82b366;" vertex="1" parent="_gjPE1Kif44rUplyWyRz-115">
          <mxGeometry x="40" width="40" height="40" as="geometry" />
        </mxCell>
        <mxCell id="_gjPE1Kif44rUplyWyRz-118" value="C" style="rounded=0;whiteSpace=wrap;html=1;labelBorderColor=none;pointerEvents=1;align=center;verticalAlign=middle;fontFamily=Helvetica;fontSize=16;fillColor=#d5e8d4;strokeColor=#82b366;" vertex="1" parent="_gjPE1Kif44rUplyWyRz-115">
          <mxGeometry x="80" width="40" height="40" as="geometry" />
        </mxCell>
        <mxCell id="_gjPE1Kif44rUplyWyRz-119" value="D" style="rounded=0;whiteSpace=wrap;html=1;labelBorderColor=none;pointerEvents=1;align=center;verticalAlign=middle;fontFamily=Helvetica;fontSize=16;fillColor=#d5e8d4;strokeColor=#82b366;" vertex="1" parent="_gjPE1Kif44rUplyWyRz-115">
          <mxGeometry x="120" width="40" height="40" as="geometry" />
        </mxCell>
        <mxCell id="_gjPE1Kif44rUplyWyRz-120" value="" style="rounded=0;whiteSpace=wrap;html=1;labelBorderColor=none;pointerEvents=1;align=center;verticalAlign=middle;fontFamily=Helvetica;fontSize=16;" vertex="1" parent="_gjPE1Kif44rUplyWyRz-115">
          <mxGeometry x="160" width="40" height="40" as="geometry" />
        </mxCell>
        <mxCell id="_gjPE1Kif44rUplyWyRz-121" value="" style="group" vertex="1" connectable="0" parent="1">
          <mxGeometry x="280" y="380" width="200" height="40" as="geometry" />
        </mxCell>
        <mxCell id="_gjPE1Kif44rUplyWyRz-122" value="A" style="rounded=0;whiteSpace=wrap;html=1;labelBorderColor=none;pointerEvents=1;align=center;verticalAlign=middle;fontFamily=Helvetica;fontSize=16;fillColor=#d5e8d4;strokeColor=#82b366;" vertex="1" parent="_gjPE1Kif44rUplyWyRz-121">
          <mxGeometry width="40" height="40" as="geometry" />
        </mxCell>
        <mxCell id="_gjPE1Kif44rUplyWyRz-123" value="B" style="rounded=0;whiteSpace=wrap;html=1;labelBorderColor=none;pointerEvents=1;align=center;verticalAlign=middle;fontFamily=Helvetica;fontSize=16;fillColor=#d5e8d4;strokeColor=#82b366;" vertex="1" parent="_gjPE1Kif44rUplyWyRz-121">
          <mxGeometry x="40" width="40" height="40" as="geometry" />
        </mxCell>
        <mxCell id="_gjPE1Kif44rUplyWyRz-124" value="C" style="rounded=0;whiteSpace=wrap;html=1;labelBorderColor=none;pointerEvents=1;align=center;verticalAlign=middle;fontFamily=Helvetica;fontSize=16;fillColor=#d5e8d4;strokeColor=#82b366;" vertex="1" parent="_gjPE1Kif44rUplyWyRz-121">
          <mxGeometry x="80" width="40" height="40" as="geometry" />
        </mxCell>
        <mxCell id="_gjPE1Kif44rUplyWyRz-125" value="D" style="rounded=0;whiteSpace=wrap;html=1;labelBorderColor=none;pointerEvents=1;align=center;verticalAlign=middle;fontFamily=Helvetica;fontSize=16;fillColor=#d5e8d4;strokeColor=#82b366;" vertex="1" parent="_gjPE1Kif44rUplyWyRz-121">
          <mxGeometry x="120" width="40" height="40" as="geometry" />
        </mxCell>
        <mxCell id="_gjPE1Kif44rUplyWyRz-126" value="E" style="rounded=0;whiteSpace=wrap;html=1;labelBorderColor=none;pointerEvents=1;align=center;verticalAlign=middle;fontFamily=Helvetica;fontSize=16;fillColor=#d5e8d4;strokeColor=#82b366;" vertex="1" parent="_gjPE1Kif44rUplyWyRz-121">
          <mxGeometry x="160" width="40" height="40" as="geometry" />
        </mxCell>
        <mxCell id="_gjPE1Kif44rUplyWyRz-127" value="" style="group" vertex="1" connectable="0" parent="1">
          <mxGeometry x="280" y="450" width="200" height="40" as="geometry" />
        </mxCell>
        <mxCell id="_gjPE1Kif44rUplyWyRz-128" value="" style="rounded=0;whiteSpace=wrap;html=1;labelBorderColor=none;pointerEvents=1;align=center;verticalAlign=middle;fontFamily=Helvetica;fontSize=16;" vertex="1" parent="_gjPE1Kif44rUplyWyRz-127">
          <mxGeometry width="40" height="40" as="geometry" />
        </mxCell>
        <mxCell id="_gjPE1Kif44rUplyWyRz-129" value="B" style="rounded=0;whiteSpace=wrap;html=1;labelBorderColor=none;pointerEvents=1;align=center;verticalAlign=middle;fontFamily=Helvetica;fontSize=16;fillColor=#d5e8d4;strokeColor=#82b366;" vertex="1" parent="_gjPE1Kif44rUplyWyRz-127">
          <mxGeometry x="40" width="40" height="40" as="geometry" />
        </mxCell>
        <mxCell id="_gjPE1Kif44rUplyWyRz-130" value="C" style="rounded=0;whiteSpace=wrap;html=1;labelBorderColor=none;pointerEvents=1;align=center;verticalAlign=middle;fontFamily=Helvetica;fontSize=16;fillColor=#d5e8d4;strokeColor=#82b366;" vertex="1" parent="_gjPE1Kif44rUplyWyRz-127">
          <mxGeometry x="80" width="40" height="40" as="geometry" />
        </mxCell>
        <mxCell id="_gjPE1Kif44rUplyWyRz-131" value="D" style="rounded=0;whiteSpace=wrap;html=1;labelBorderColor=none;pointerEvents=1;align=center;verticalAlign=middle;fontFamily=Helvetica;fontSize=16;fillColor=#d5e8d4;strokeColor=#82b366;" vertex="1" parent="_gjPE1Kif44rUplyWyRz-127">
          <mxGeometry x="120" width="40" height="40" as="geometry" />
        </mxCell>
        <mxCell id="_gjPE1Kif44rUplyWyRz-132" value="E" style="rounded=0;whiteSpace=wrap;html=1;labelBorderColor=none;pointerEvents=1;align=center;verticalAlign=middle;fontFamily=Helvetica;fontSize=16;fillColor=#d5e8d4;strokeColor=#82b366;" vertex="1" parent="_gjPE1Kif44rUplyWyRz-127">
          <mxGeometry x="160" width="40" height="40" as="geometry" />
        </mxCell>
        <mxCell id="_gjPE1Kif44rUplyWyRz-133" value="" style="group" vertex="1" connectable="0" parent="1">
          <mxGeometry x="280" y="520" width="200" height="40" as="geometry" />
        </mxCell>
        <mxCell id="_gjPE1Kif44rUplyWyRz-134" value="" style="rounded=0;whiteSpace=wrap;html=1;labelBorderColor=none;pointerEvents=1;align=center;verticalAlign=middle;fontFamily=Helvetica;fontSize=16;" vertex="1" parent="_gjPE1Kif44rUplyWyRz-133">
          <mxGeometry width="40" height="40" as="geometry" />
        </mxCell>
        <mxCell id="_gjPE1Kif44rUplyWyRz-135" value="" style="rounded=0;whiteSpace=wrap;html=1;labelBorderColor=none;pointerEvents=1;align=center;verticalAlign=middle;fontFamily=Helvetica;fontSize=16;" vertex="1" parent="_gjPE1Kif44rUplyWyRz-133">
          <mxGeometry x="40" width="40" height="40" as="geometry" />
        </mxCell>
        <mxCell id="_gjPE1Kif44rUplyWyRz-136" value="C" style="rounded=0;whiteSpace=wrap;html=1;labelBorderColor=none;pointerEvents=1;align=center;verticalAlign=middle;fontFamily=Helvetica;fontSize=16;fillColor=#d5e8d4;strokeColor=#82b366;" vertex="1" parent="_gjPE1Kif44rUplyWyRz-133">
          <mxGeometry x="80" width="40" height="40" as="geometry" />
        </mxCell>
        <mxCell id="_gjPE1Kif44rUplyWyRz-137" value="D" style="rounded=0;whiteSpace=wrap;html=1;labelBorderColor=none;pointerEvents=1;align=center;verticalAlign=middle;fontFamily=Helvetica;fontSize=16;fillColor=#d5e8d4;strokeColor=#82b366;" vertex="1" parent="_gjPE1Kif44rUplyWyRz-133">
          <mxGeometry x="120" width="40" height="40" as="geometry" />
        </mxCell>
        <mxCell id="_gjPE1Kif44rUplyWyRz-138" value="E" style="rounded=0;whiteSpace=wrap;html=1;labelBorderColor=none;pointerEvents=1;align=center;verticalAlign=middle;fontFamily=Helvetica;fontSize=16;fillColor=#d5e8d4;strokeColor=#82b366;" vertex="1" parent="_gjPE1Kif44rUplyWyRz-133">
          <mxGeometry x="160" width="40" height="40" as="geometry" />
        </mxCell>
        <mxCell id="_gjPE1Kif44rUplyWyRz-139" value="" style="group" vertex="1" connectable="0" parent="1">
          <mxGeometry x="280" y="590" width="200" height="40" as="geometry" />
        </mxCell>
        <mxCell id="_gjPE1Kif44rUplyWyRz-140" value="" style="rounded=0;whiteSpace=wrap;html=1;labelBorderColor=none;pointerEvents=1;align=center;verticalAlign=middle;fontFamily=Helvetica;fontSize=16;" vertex="1" parent="_gjPE1Kif44rUplyWyRz-139">
          <mxGeometry width="40" height="40" as="geometry" />
        </mxCell>
        <mxCell id="_gjPE1Kif44rUplyWyRz-141" value="" style="rounded=0;whiteSpace=wrap;html=1;labelBorderColor=none;pointerEvents=1;align=center;verticalAlign=middle;fontFamily=Helvetica;fontSize=16;" vertex="1" parent="_gjPE1Kif44rUplyWyRz-139">
          <mxGeometry x="40" width="40" height="40" as="geometry" />
        </mxCell>
        <mxCell id="_gjPE1Kif44rUplyWyRz-142" value="" style="rounded=0;whiteSpace=wrap;html=1;labelBorderColor=none;pointerEvents=1;align=center;verticalAlign=middle;fontFamily=Helvetica;fontSize=16;" vertex="1" parent="_gjPE1Kif44rUplyWyRz-139">
          <mxGeometry x="80" width="40" height="40" as="geometry" />
        </mxCell>
        <mxCell id="_gjPE1Kif44rUplyWyRz-143" value="D" style="rounded=0;whiteSpace=wrap;html=1;labelBorderColor=none;pointerEvents=1;align=center;verticalAlign=middle;fontFamily=Helvetica;fontSize=16;fillColor=#d5e8d4;strokeColor=#82b366;" vertex="1" parent="_gjPE1Kif44rUplyWyRz-139">
          <mxGeometry x="120" width="40" height="40" as="geometry" />
        </mxCell>
        <mxCell id="_gjPE1Kif44rUplyWyRz-144" value="E" style="rounded=0;whiteSpace=wrap;html=1;labelBorderColor=none;pointerEvents=1;align=center;verticalAlign=middle;fontFamily=Helvetica;fontSize=16;fillColor=#d5e8d4;strokeColor=#82b366;" vertex="1" parent="_gjPE1Kif44rUplyWyRz-139">
          <mxGeometry x="160" width="40" height="40" as="geometry" />
        </mxCell>
        <mxCell id="_gjPE1Kif44rUplyWyRz-145" value="" style="group" vertex="1" connectable="0" parent="1">
          <mxGeometry x="280" y="660" width="200" height="40" as="geometry" />
        </mxCell>
        <mxCell id="_gjPE1Kif44rUplyWyRz-146" value="" style="rounded=0;whiteSpace=wrap;html=1;labelBorderColor=none;pointerEvents=1;align=center;verticalAlign=middle;fontFamily=Helvetica;fontSize=16;" vertex="1" parent="_gjPE1Kif44rUplyWyRz-145">
          <mxGeometry width="40" height="40" as="geometry" />
        </mxCell>
        <mxCell id="_gjPE1Kif44rUplyWyRz-147" value="" style="rounded=0;whiteSpace=wrap;html=1;labelBorderColor=none;pointerEvents=1;align=center;verticalAlign=middle;fontFamily=Helvetica;fontSize=16;" vertex="1" parent="_gjPE1Kif44rUplyWyRz-145">
          <mxGeometry x="40" width="40" height="40" as="geometry" />
        </mxCell>
        <mxCell id="_gjPE1Kif44rUplyWyRz-148" value="" style="rounded=0;whiteSpace=wrap;html=1;labelBorderColor=none;pointerEvents=1;align=center;verticalAlign=middle;fontFamily=Helvetica;fontSize=16;" vertex="1" parent="_gjPE1Kif44rUplyWyRz-145">
          <mxGeometry x="80" width="40" height="40" as="geometry" />
        </mxCell>
        <mxCell id="_gjPE1Kif44rUplyWyRz-149" value="" style="rounded=0;whiteSpace=wrap;html=1;labelBorderColor=none;pointerEvents=1;align=center;verticalAlign=middle;fontFamily=Helvetica;fontSize=16;" vertex="1" parent="_gjPE1Kif44rUplyWyRz-145">
          <mxGeometry x="120" width="40" height="40" as="geometry" />
        </mxCell>
        <mxCell id="_gjPE1Kif44rUplyWyRz-150" value="E" style="rounded=0;whiteSpace=wrap;html=1;labelBorderColor=none;pointerEvents=1;align=center;verticalAlign=middle;fontFamily=Helvetica;fontSize=16;fillColor=#d5e8d4;strokeColor=#82b366;" vertex="1" parent="_gjPE1Kif44rUplyWyRz-145">
          <mxGeometry x="160" width="40" height="40" as="geometry" />
        </mxCell>
        <mxCell id="_gjPE1Kif44rUplyWyRz-152" value="" style="group" vertex="1" connectable="0" parent="1">
          <mxGeometry x="280" y="730" width="200" height="40" as="geometry" />
        </mxCell>
        <mxCell id="_gjPE1Kif44rUplyWyRz-153" value="" style="rounded=0;whiteSpace=wrap;html=1;labelBorderColor=none;pointerEvents=1;align=center;verticalAlign=middle;fontFamily=Helvetica;fontSize=16;" vertex="1" parent="_gjPE1Kif44rUplyWyRz-152">
          <mxGeometry width="40" height="40" as="geometry" />
        </mxCell>
        <mxCell id="_gjPE1Kif44rUplyWyRz-154" value="" style="rounded=0;whiteSpace=wrap;html=1;labelBorderColor=none;pointerEvents=1;align=center;verticalAlign=middle;fontFamily=Helvetica;fontSize=16;" vertex="1" parent="_gjPE1Kif44rUplyWyRz-152">
          <mxGeometry x="40" width="40" height="40" as="geometry" />
        </mxCell>
        <mxCell id="_gjPE1Kif44rUplyWyRz-155" value="" style="rounded=0;whiteSpace=wrap;html=1;labelBorderColor=none;pointerEvents=1;align=center;verticalAlign=middle;fontFamily=Helvetica;fontSize=16;" vertex="1" parent="_gjPE1Kif44rUplyWyRz-152">
          <mxGeometry x="80" width="40" height="40" as="geometry" />
        </mxCell>
        <mxCell id="_gjPE1Kif44rUplyWyRz-156" value="" style="rounded=0;whiteSpace=wrap;html=1;labelBorderColor=none;pointerEvents=1;align=center;verticalAlign=middle;fontFamily=Helvetica;fontSize=16;" vertex="1" parent="_gjPE1Kif44rUplyWyRz-152">
          <mxGeometry x="120" width="40" height="40" as="geometry" />
        </mxCell>
        <mxCell id="_gjPE1Kif44rUplyWyRz-157" value="" style="rounded=0;whiteSpace=wrap;html=1;labelBorderColor=none;pointerEvents=1;align=center;verticalAlign=middle;fontFamily=Helvetica;fontSize=16;" vertex="1" parent="_gjPE1Kif44rUplyWyRz-152">
          <mxGeometry x="160" width="40" height="40" as="geometry" />
        </mxCell>
        <mxCell id="_gjPE1Kif44rUplyWyRz-158" value="p" style="text;html=1;strokeColor=none;fillColor=none;align=center;verticalAlign=middle;whiteSpace=wrap;rounded=0;fontSize=16;fontFamily=Helvetica;fontColor=default;" vertex="1" parent="1">
          <mxGeometry x="276" y="68" width="30" height="30" as="geometry" />
        </mxCell>
        <mxCell id="_gjPE1Kif44rUplyWyRz-160" value="t" style="text;html=1;strokeColor=none;fillColor=none;align=center;verticalAlign=middle;whiteSpace=wrap;rounded=0;fontSize=16;fontFamily=Helvetica;fontColor=default;" vertex="1" parent="1">
          <mxGeometry x="290" y="70" width="30" height="30" as="geometry" />
        </mxCell>
        <mxCell id="_gjPE1Kif44rUplyWyRz-161" value="t" style="text;html=1;strokeColor=none;fillColor=none;align=center;verticalAlign=middle;whiteSpace=wrap;rounded=0;fontSize=16;fontFamily=Helvetica;fontColor=default;" vertex="1" parent="1">
          <mxGeometry x="280" y="140" width="40" height="30" as="geometry" />
        </mxCell>
        <mxCell id="_gjPE1Kif44rUplyWyRz-162" value="t" style="text;html=1;strokeColor=none;fillColor=none;align=center;verticalAlign=middle;whiteSpace=wrap;rounded=0;fontSize=16;fontFamily=Helvetica;fontColor=default;" vertex="1" parent="1">
          <mxGeometry x="280" y="210" width="40" height="30" as="geometry" />
        </mxCell>
        <mxCell id="_gjPE1Kif44rUplyWyRz-163" value="t" style="text;html=1;strokeColor=none;fillColor=none;align=center;verticalAlign=middle;whiteSpace=wrap;rounded=0;fontSize=16;fontFamily=Helvetica;fontColor=default;" vertex="1" parent="1">
          <mxGeometry x="280" y="280" width="40" height="30" as="geometry" />
        </mxCell>
        <mxCell id="_gjPE1Kif44rUplyWyRz-164" value="t" style="text;html=1;strokeColor=none;fillColor=none;align=center;verticalAlign=middle;whiteSpace=wrap;rounded=0;fontSize=16;fontFamily=Helvetica;fontColor=default;" vertex="1" parent="1">
          <mxGeometry x="280" y="350" width="40" height="30" as="geometry" />
        </mxCell>
        <mxCell id="_gjPE1Kif44rUplyWyRz-167" value="t" style="text;html=1;strokeColor=none;fillColor=none;align=center;verticalAlign=middle;whiteSpace=wrap;rounded=0;fontSize=16;fontFamily=Helvetica;fontColor=default;" vertex="1" parent="1">
          <mxGeometry x="320" y="490" width="40" height="30" as="geometry" />
        </mxCell>
        <mxCell id="_gjPE1Kif44rUplyWyRz-168" value="t" style="text;html=1;strokeColor=none;fillColor=none;align=center;verticalAlign=middle;whiteSpace=wrap;rounded=0;fontSize=16;fontFamily=Helvetica;fontColor=default;" vertex="1" parent="1">
          <mxGeometry x="360" y="560" width="40" height="30" as="geometry" />
        </mxCell>
        <mxCell id="_gjPE1Kif44rUplyWyRz-169" value="t" style="text;html=1;strokeColor=none;fillColor=none;align=center;verticalAlign=middle;whiteSpace=wrap;rounded=0;fontSize=16;fontFamily=Helvetica;fontColor=default;" vertex="1" parent="1">
          <mxGeometry x="400" y="630" width="40" height="30" as="geometry" />
        </mxCell>
        <mxCell id="_gjPE1Kif44rUplyWyRz-170" value="t" style="text;html=1;strokeColor=none;fillColor=none;align=center;verticalAlign=middle;whiteSpace=wrap;rounded=0;fontSize=16;fontFamily=Helvetica;fontColor=default;" vertex="1" parent="1">
          <mxGeometry x="440" y="700" width="40" height="30" as="geometry" />
        </mxCell>
        <mxCell id="_gjPE1Kif44rUplyWyRz-171" value="p" style="text;html=1;strokeColor=none;fillColor=none;align=center;verticalAlign=middle;whiteSpace=wrap;rounded=0;fontSize=16;fontFamily=Helvetica;fontColor=default;" vertex="1" parent="1">
          <mxGeometry x="278" y="770" width="30" height="30" as="geometry" />
        </mxCell>
        <mxCell id="_gjPE1Kif44rUplyWyRz-172" value="t" style="text;html=1;strokeColor=none;fillColor=none;align=center;verticalAlign=middle;whiteSpace=wrap;rounded=0;fontSize=16;fontFamily=Helvetica;fontColor=default;" vertex="1" parent="1">
          <mxGeometry x="292" y="772" width="30" height="30" as="geometry" />
        </mxCell>
        <mxCell id="_gjPE1Kif44rUplyWyRz-173" value="p" style="text;html=1;strokeColor=none;fillColor=none;align=center;verticalAlign=middle;whiteSpace=wrap;rounded=0;fontSize=16;fontFamily=Helvetica;fontColor=default;" vertex="1" parent="1">
          <mxGeometry x="320" y="140" width="40" height="30" as="geometry" />
        </mxCell>
        <mxCell id="_gjPE1Kif44rUplyWyRz-175" value="p" style="text;html=1;strokeColor=none;fillColor=none;align=center;verticalAlign=middle;whiteSpace=wrap;rounded=0;fontSize=16;fontFamily=Helvetica;fontColor=default;" vertex="1" parent="1">
          <mxGeometry x="360" y="210" width="40" height="30" as="geometry" />
        </mxCell>
        <mxCell id="_gjPE1Kif44rUplyWyRz-176" value="p" style="text;html=1;strokeColor=none;fillColor=none;align=center;verticalAlign=middle;whiteSpace=wrap;rounded=0;fontSize=16;fontFamily=Helvetica;fontColor=default;" vertex="1" parent="1">
          <mxGeometry x="400" y="280" width="40" height="30" as="geometry" />
        </mxCell>
        <mxCell id="_gjPE1Kif44rUplyWyRz-177" value="p" style="text;html=1;strokeColor=none;fillColor=none;align=center;verticalAlign=middle;whiteSpace=wrap;rounded=0;fontSize=16;fontFamily=Helvetica;fontColor=default;" vertex="1" parent="1">
          <mxGeometry x="440" y="350" width="40" height="30" as="geometry" />
        </mxCell>
        <mxCell id="_gjPE1Kif44rUplyWyRz-178" value="p" style="text;html=1;strokeColor=none;fillColor=none;align=center;verticalAlign=middle;whiteSpace=wrap;rounded=0;fontSize=16;fontFamily=Helvetica;fontColor=default;" vertex="1" parent="1">
          <mxGeometry x="280" y="490" width="40" height="30" as="geometry" />
        </mxCell>
        <mxCell id="_gjPE1Kif44rUplyWyRz-179" value="p" style="text;html=1;strokeColor=none;fillColor=none;align=center;verticalAlign=middle;whiteSpace=wrap;rounded=0;fontSize=16;fontFamily=Helvetica;fontColor=default;" vertex="1" parent="1">
          <mxGeometry x="282" y="560" width="40" height="30" as="geometry" />
        </mxCell>
        <mxCell id="_gjPE1Kif44rUplyWyRz-180" value="p" style="text;html=1;strokeColor=none;fillColor=none;align=center;verticalAlign=middle;whiteSpace=wrap;rounded=0;fontSize=16;fontFamily=Helvetica;fontColor=default;" vertex="1" parent="1">
          <mxGeometry x="280" y="630" width="40" height="30" as="geometry" />
        </mxCell>
        <mxCell id="_gjPE1Kif44rUplyWyRz-181" value="p" style="text;html=1;strokeColor=none;fillColor=none;align=center;verticalAlign=middle;whiteSpace=wrap;rounded=0;fontSize=16;fontFamily=Helvetica;fontColor=default;" vertex="1" parent="1">
          <mxGeometry x="278" y="700" width="40" height="30" as="geometry" />
        </mxCell>
        <mxCell id="_gjPE1Kif44rUplyWyRz-182" value="p" style="text;html=1;strokeColor=none;fillColor=none;align=center;verticalAlign=middle;whiteSpace=wrap;rounded=0;fontSize=16;fontFamily=Helvetica;fontColor=default;" vertex="1" parent="1">
          <mxGeometry x="278" y="420" width="30" height="30" as="geometry" />
        </mxCell>
        <mxCell id="_gjPE1Kif44rUplyWyRz-183" value="t" style="text;html=1;strokeColor=none;fillColor=none;align=center;verticalAlign=middle;whiteSpace=wrap;rounded=0;fontSize=16;fontFamily=Helvetica;fontColor=default;" vertex="1" parent="1">
          <mxGeometry x="292" y="422" width="30" height="30" as="geometry" />
        </mxCell>
        <mxCell id="_gjPE1Kif44rUplyWyRz-184" value="空队列" style="text;html=1;strokeColor=none;fillColor=none;align=center;verticalAlign=middle;whiteSpace=wrap;rounded=0;fontSize=16;fontFamily=Helvetica;fontColor=default;" vertex="1" parent="1">
          <mxGeometry x="185" y="35" width="50" height="30" as="geometry" />
        </mxCell>
        <mxCell id="_gjPE1Kif44rUplyWyRz-186" value="空队列" style="text;html=1;strokeColor=none;fillColor=none;align=center;verticalAlign=middle;whiteSpace=wrap;rounded=0;fontSize=16;fontFamily=Helvetica;fontColor=default;" vertex="1" parent="1">
          <mxGeometry x="185" y="735" width="50" height="30" as="geometry" />
        </mxCell>
        <mxCell id="_gjPE1Kif44rUplyWyRz-188" value="添加一个元素" style="text;html=1;strokeColor=none;fillColor=none;align=center;verticalAlign=middle;whiteSpace=wrap;rounded=0;fontSize=16;fontFamily=Helvetica;fontColor=default;" vertex="1" parent="1">
          <mxGeometry x="160" y="105" width="100" height="30" as="geometry" />
        </mxCell>
        <mxCell id="_gjPE1Kif44rUplyWyRz-189" value="添加一个元素" style="text;html=1;strokeColor=none;fillColor=none;align=center;verticalAlign=middle;whiteSpace=wrap;rounded=0;fontSize=16;fontFamily=Helvetica;fontColor=default;" vertex="1" parent="1">
          <mxGeometry x="160" y="175" width="100" height="30" as="geometry" />
        </mxCell>
        <mxCell id="_gjPE1Kif44rUplyWyRz-190" value="添加一个元素" style="text;html=1;strokeColor=none;fillColor=none;align=center;verticalAlign=middle;whiteSpace=wrap;rounded=0;fontSize=16;fontFamily=Helvetica;fontColor=default;" vertex="1" parent="1">
          <mxGeometry x="160" y="245" width="100" height="30" as="geometry" />
        </mxCell>
        <mxCell id="_gjPE1Kif44rUplyWyRz-191" value="添加一个元素" style="text;html=1;strokeColor=none;fillColor=none;align=center;verticalAlign=middle;whiteSpace=wrap;rounded=0;fontSize=16;fontFamily=Helvetica;fontColor=default;" vertex="1" parent="1">
          <mxGeometry x="160" y="315" width="100" height="30" as="geometry" />
        </mxCell>
        <mxCell id="_gjPE1Kif44rUplyWyRz-192" value="添加一个元素" style="text;html=1;strokeColor=none;fillColor=none;align=center;verticalAlign=middle;whiteSpace=wrap;rounded=0;fontSize=16;fontFamily=Helvetica;fontColor=default;" vertex="1" parent="1">
          <mxGeometry x="160" y="385" width="100" height="30" as="geometry" />
        </mxCell>
        <mxCell id="_gjPE1Kif44rUplyWyRz-193" value="移除一个元素" style="text;html=1;strokeColor=none;fillColor=none;align=center;verticalAlign=middle;whiteSpace=wrap;rounded=0;fontSize=16;fontFamily=Helvetica;fontColor=default;" vertex="1" parent="1">
          <mxGeometry x="160" y="455" width="100" height="30" as="geometry" />
        </mxCell>
        <mxCell id="_gjPE1Kif44rUplyWyRz-194" value="移除一个元素" style="text;html=1;strokeColor=none;fillColor=none;align=center;verticalAlign=middle;whiteSpace=wrap;rounded=0;fontSize=16;fontFamily=Helvetica;fontColor=default;" vertex="1" parent="1">
          <mxGeometry x="160" y="525" width="100" height="30" as="geometry" />
        </mxCell>
        <mxCell id="_gjPE1Kif44rUplyWyRz-195" value="移除一个元素" style="text;html=1;strokeColor=none;fillColor=none;align=center;verticalAlign=middle;whiteSpace=wrap;rounded=0;fontSize=16;fontFamily=Helvetica;fontColor=default;" vertex="1" parent="1">
          <mxGeometry x="160" y="595" width="100" height="30" as="geometry" />
        </mxCell>
        <mxCell id="_gjPE1Kif44rUplyWyRz-196" value="移除一个元素" style="text;html=1;strokeColor=none;fillColor=none;align=center;verticalAlign=middle;whiteSpace=wrap;rounded=0;fontSize=16;fontFamily=Helvetica;fontColor=default;" vertex="1" parent="1">
          <mxGeometry x="160" y="665" width="100" height="30" as="geometry" />
        </mxCell>
      </root>
    </mxGraphModel>
  </diagram>
</mxfile>
